<?xml version="1.0" standalone="no"?>
<!DOCTYPE svg PUBLIC "-//W3C//DTD SVG 20010904//EN"
 "http://www.w3.org/TR/2001/REC-SVG-20010904/DTD/svg10.dtd">
<svg version="1.0" xmlns="http://www.w3.org/2000/svg"
 width="1072.000000pt" height="1280.000000pt" viewBox="0 0 1072.000000 1280.000000"
 preserveAspectRatio="xMidYMid meet">
<metadata>
Created by potrace 1.15, written by Peter Selinger 2001-2017
</metadata>
<g transform="translate(0.000000,1280.000000) scale(0.100000,-0.100000)"
fill="#000000" stroke="none">
<path d="M7113 12776 c-16 -13 -39 -47 -53 -75 -17 -38 -26 -48 -36 -40 -6 5
-27 14 -45 19 -26 8 -39 6 -68 -12 -58 -35 -79 -58 -96 -107 -19 -55 -57 -101
-84 -101 -25 0 -59 -43 -67 -86 -6 -32 -8 -34 -50 -34 -42 0 -43 -1 -55 -42
-7 -24 -22 -56 -34 -73 -12 -16 -27 -50 -33 -74 -9 -39 -8 -47 9 -69 10 -14
19 -36 19 -49 0 -39 28 -139 56 -198 14 -30 80 -120 146 -200 119 -146 119
-146 146 -243 30 -109 36 -252 13 -331 -29 -108 -139 -261 -185 -261 -8 0 -52
-16 -98 -36 -46 -19 -166 -65 -268 -102 -239 -85 -280 -89 -442 -39 -63 19
-154 56 -202 81 -49 25 -95 46 -102 46 -7 0 -23 17 -35 38 -12 20 -42 58 -65
83 -23 26 -77 100 -120 165 -96 147 -114 204 -114 357 0 99 4 123 51 290 27
100 54 189 58 197 23 43 92 286 89 313 -2 26 -9 34 -35 41 -26 8 -33 17 -43
55 -6 25 -18 67 -26 93 -8 26 -14 62 -14 82 0 47 -16 87 -38 93 -9 2 -34 30
-54 61 -21 32 -51 71 -67 86 -29 28 -31 28 -55 13 -13 -9 -27 -25 -31 -36 -6
-19 -9 -18 -70 10 -75 35 -91 31 -126 -30 -12 -22 -32 -42 -44 -45 -12 -3 -45
-33 -74 -66 l-52 -60 -70 0 c-67 0 -71 -1 -87 -30 -9 -16 -27 -35 -40 -42 -60
-32 -101 -169 -67 -222 22 -33 62 -225 90 -436 8 -58 21 -136 30 -175 9 -38
20 -88 25 -110 14 -71 -15 -518 -40 -610 -22 -78 -53 -171 -75 -225 -12 -30
-31 -82 -40 -115 -10 -33 -26 -83 -36 -112 -10 -28 -23 -82 -29 -120 -6 -37
-20 -95 -30 -128 -38 -124 -53 -215 -77 -461 l-5 -52 -61 -6 c-80 -8 -195 13
-297 55 -25 10 -53 19 -63 21 -12 2 -26 24 -41 68 -13 36 -37 97 -54 135 -47
108 -91 222 -119 310 -59 186 -117 256 -294 355 -113 64 -294 140 -449 188
-52 17 -140 47 -195 66 -139 51 -231 66 -453 77 l-193 9 -59 -57 c-33 -31 -60
-61 -60 -66 0 -5 -9 -22 -20 -37 -11 -16 -31 -57 -44 -92 -20 -55 -25 -96 -36
-311 -14 -285 -6 -649 16 -738 8 -31 14 -81 14 -110 0 -30 9 -97 20 -149 11
-52 20 -105 20 -117 0 -44 61 -248 95 -317 65 -133 196 -323 308 -446 100
-109 114 -121 200 -163 51 -24 117 -52 147 -62 30 -9 95 -33 143 -51 122 -48
278 -84 361 -84 l69 0 69 -65 c96 -91 136 -118 268 -185 63 -32 124 -67 134
-79 17 -19 18 -23 4 -38 -9 -10 -44 -71 -78 -136 l-63 -119 -116 -57 c-64 -31
-134 -64 -156 -73 -59 -24 -77 -40 -69 -62 4 -9 18 -22 32 -27 25 -10 24 -11
-41 -55 -80 -53 -106 -87 -89 -115 15 -23 -3 -36 -107 -79 -141 -59 -236 -113
-239 -137 -3 -19 3 -23 37 -29 22 -4 48 -12 57 -19 15 -10 9 -18 -46 -62 -34
-28 -108 -74 -163 -103 -293 -152 -329 -213 -136 -231 50 -5 94 -11 97 -13 2
-3 -12 -12 -32 -20 -51 -21 -361 -130 -428 -150 -31 -9 -96 -37 -143 -62 -69
-37 -85 -50 -85 -69 0 -23 22 -37 83 -51 36 -8 34 -14 -11 -43 -20 -13 -77
-54 -127 -91 -49 -37 -118 -81 -151 -99 -112 -59 -105 -113 15 -128 l65 -8
-75 -39 c-82 -42 -114 -68 -134 -106 -14 -29 -10 -46 18 -77 11 -13 19 -25 16
-27 -2 -2 -33 -16 -69 -30 -66 -27 -190 -96 -222 -124 -10 -8 -18 -23 -18 -33
0 -18 53 -31 204 -47 l69 -7 -94 -28 c-52 -16 -124 -38 -160 -49 -88 -27 -144
-59 -144 -83 0 -26 80 -74 147 -90 l53 -12 -70 -7 c-206 -20 -331 -40 -348
-54 -31 -27 -17 -54 45 -86 32 -17 54 -34 50 -37 -4 -4 -35 -19 -69 -32 -34
-14 -89 -46 -121 -71 -33 -25 -86 -58 -118 -73 -47 -23 -59 -33 -59 -52 0 -26
8 -32 73 -59 l44 -17 -74 -47 c-40 -25 -116 -69 -168 -98 -113 -61 -142 -86
-138 -118 3 -23 32 -39 143 -77 18 -6 16 -11 -25 -46 -25 -22 -85 -65 -135
-96 -49 -30 -110 -68 -133 -84 -24 -15 -75 -40 -113 -55 -50 -20 -69 -32 -69
-45 0 -23 70 -69 128 -84 l43 -11 -43 -19 c-60 -27 -170 -105 -165 -119 2 -6
23 -20 47 -32 l44 -21 -80 -44 -79 -45 -3 -1722 -2 -1722 1938 0 1938 0 294
603 c161 331 324 667 361 747 112 242 769 1668 814 1768 37 81 50 99 101 140
46 37 84 86 175 222 63 95 120 175 125 177 5 2 32 -16 59 -40 28 -24 93 -69
145 -100 122 -72 159 -118 224 -277 3 -8 43 -68 88 -134 l83 -118 115 -71 c63
-38 165 -90 225 -114 l110 -45 225 -1 c124 -1 266 2 315 7 87 8 97 12 290 107
110 55 236 124 280 154 44 30 97 67 118 81 39 26 123 126 171 203 15 24 44 60
64 80 62 63 107 155 143 297 32 124 33 136 34 329 l0 200 -42 124 c-26 75 -41
132 -37 146 4 18 -1 30 -22 47 -15 13 -42 36 -60 51 -40 34 -133 206 -162 297
-12 36 -50 155 -85 265 -97 299 -95 284 -52 365 30 59 35 77 35 136 0 38 9
111 20 163 13 60 20 133 20 201 0 128 11 198 51 308 39 110 59 232 59 356 l0
102 49 48 c28 27 60 72 72 100 29 69 70 126 91 126 10 0 36 16 57 36 38 34 64
92 85 187 4 15 16 35 28 45 41 34 115 161 142 243 l27 84 64 -3 c119 -7 186
10 270 69 95 66 127 103 113 135 -9 20 -19 22 -112 26 -81 4 -112 10 -158 31
-31 14 -61 35 -67 45 -5 10 -26 27 -46 38 -34 18 -35 19 -13 26 13 3 70 6 128
7 138 1 202 20 405 116 39 18 110 47 159 64 48 17 100 40 115 50 14 10 37 22
51 26 68 21 193 110 271 193 115 123 157 188 249 384 95 201 79 168 171 344
40 77 82 155 95 175 12 20 58 105 101 190 43 84 99 194 125 243 26 50 48 99
48 108 0 9 9 54 20 100 30 125 28 314 -4 403 -35 96 -63 132 -131 168 l-60 32
-246 -2 c-135 0 -279 -6 -320 -13 -41 -6 -161 -18 -268 -25 -106 -8 -207 -19
-225 -24 -17 -6 -78 -23 -136 -40 -58 -16 -139 -43 -180 -59 -218 -87 -310
-126 -359 -150 -168 -84 -180 -98 -319 -362 -53 -101 -141 -230 -175 -258 -9
-8 -31 -22 -49 -31 -18 -10 -69 -39 -113 -65 -44 -25 -85 -46 -92 -46 -7 0
-17 19 -23 43 -22 84 -38 133 -60 182 -37 83 -69 185 -81 254 -11 60 -60 201
-78 226 -19 24 -110 237 -135 314 -15 47 -45 131 -66 188 -68 180 -73 213 -68
417 4 119 11 206 23 254 14 63 16 121 13 450 l-3 377 -27 65 c-15 36 -30 84
-34 107 -7 47 -40 78 -65 62 -23 -15 -25 -12 -48 64 -26 87 -42 110 -72 105
-18 -2 -32 11 -74 72 -28 41 -59 76 -67 78 -8 2 -28 -8 -45 -22z"/>
</g>
</svg>
